<svg id="SvgjsSvg1011" width="288" height="288" xmlns="http://www.w3.org/2000/svg" version="1.1" xmlns:xlink="http://www.w3.org/1999/xlink" xmlns:svgjs="http://svgjs.com/svgjs"><defs id="SvgjsDefs1012"></defs><g id="SvgjsG1013"><svg xmlns="http://www.w3.org/2000/svg" viewBox="0 0 40 40" width="288" height="288"><path d="M35.27 26.37a5.76 5.76 0 0 1-2.09 1.31l-11.07 4v-2.95l8.14-2.91c.93-.33 1.07-.8.32-1a5.51 5.51 0 0 0-3 .15l-5.42 1.92V23.8l.31-.1a18.28 18.28 0 0 1 3.77-.8 16.06 16.06 0 0 1 7 .83c2.38.76 2.65 1.87 2.04 2.64Zm-12.11-5v-7.5c0-.89-.16-1.7-1-1.93-.63-.2-1 .39-1 1.27V32l-5.06-1.61V8a61.12 61.12 0 0 1 7 1.91c4.29 1.48 5.74 3.31 5.74 7.44s-2.52 5.55-5.68 4.03Zm-16.37 7c-2.46-.69-2.86-2.13-1.75-3a11.91 11.91 0 0 1 2.79-1.34l7.27-2.58v2.94l-5.23 1.96c-.92.33-1.07.8-.32 1a5.61 5.61 0 0 0 3-.16l2.51-.91V29l-.5.09a16.39 16.39 0 0 1-7.81-.63Z" fill="#ffffff" class="color000 svgShape"></path></svg></g></svg>